<svg xmlns="http://www.w3.org/2000/svg" xmlns:xlink="http://www.w3.org/1999/xlink" preserveAspectRatio="xMidYMid" width="200" height="50" viewBox="0 0 200 50">
  <defs>
    <style>
      .cls-1 {
        fill: #fff;
        fill-rule: evenodd;
      }
    </style>
  </defs>
  <path d="M49.790,13.807 L49.794,13.809 L42.762,29.495 L42.762,29.495 C42.415,30.268 41.665,30.818 40.781,30.877 L40.781,30.877 L20.532,32.232 L21.702,35.588 L43.750,35.588 C46.339,35.588 48.438,37.695 48.438,40.294 C48.438,42.893 46.339,45.000 43.750,45.000 C41.161,45.000 39.063,42.893 39.063,40.294 L17.188,40.294 C17.188,42.893 15.089,45.000 12.500,45.000 C9.911,45.000 7.812,42.893 7.812,40.294 C7.812,37.695 9.911,35.588 12.500,35.588 L16.736,35.588 L7.712,9.706 L2.344,9.706 C1.049,9.706 0.000,8.653 0.000,7.353 C0.000,6.054 1.049,5.000 2.344,5.000 L9.375,5.000 C10.398,5.000 11.258,5.662 11.578,6.579 L11.587,6.576 L12.952,10.490 L47.656,10.490 C48.951,10.490 50.000,11.544 50.000,12.843 C50.000,13.188 49.922,13.512 49.790,13.807 ZM14.592,15.196 L18.925,27.624 L39.065,26.276 L44.031,15.196 L14.592,15.196 Z" class="cls-1"/>
  <path d="M80.875,32.125 L69.000,27.375 L82.983,10.444 L61.875,25.000 L50.000,20.314 L88.000,6.000 L80.875,32.125 ZM66.787,44.000 L66.625,29.750 L71.375,32.125 L66.787,44.000 Z" class="cls-1"/>
  <path d="M130.000,12.193 L122.125,19.750 L122.125,14.500 L111.625,14.500 L111.625,19.750 L106.375,25.000 L106.375,14.500 C106.375,11.600 108.725,9.250 111.625,9.250 L122.125,9.250 L122.125,4.000 L130.000,12.193 ZM106.375,30.250 L111.625,25.000 L111.625,35.500 C111.625,38.400 109.275,40.750 106.375,40.750 L95.875,40.750 L95.875,46.000 L88.000,37.807 L95.875,30.250 L95.875,35.500 L106.375,35.500 L106.375,30.250 Z" class="cls-1"/>
  <path d="M182.422,49.000 L132.578,49.000 C131.154,49.000 130.000,47.848 130.000,46.428 L130.000,3.571 C130.000,2.151 131.154,1.000 132.578,1.000 L182.422,1.000 C183.846,1.000 185.000,2.151 185.000,3.571 L185.000,46.428 C185.000,47.848 183.846,49.000 182.422,49.000 ZM135.156,3.571 C133.732,3.571 132.578,4.723 132.578,6.143 C132.578,7.563 133.732,8.714 135.156,8.714 C136.580,8.714 137.734,7.563 137.734,6.143 C137.734,4.723 136.580,3.571 135.156,3.571 ZM142.891,3.571 C141.467,3.571 140.312,4.723 140.312,6.143 C140.312,7.563 141.467,8.714 142.891,8.714 C144.314,8.714 145.469,7.563 145.469,6.143 C145.469,4.723 144.314,3.571 142.891,3.571 ZM150.625,3.571 C149.201,3.571 148.047,4.723 148.047,6.143 C148.047,7.563 149.201,8.714 150.625,8.714 C152.049,8.714 153.203,7.563 153.203,6.143 C153.203,4.723 152.049,3.571 150.625,3.571 ZM182.422,11.286 L179.844,11.286 L135.156,11.286 L132.578,11.286 L132.578,46.428 L182.422,46.428 L182.422,11.286 Z" class="cls-1"/>
</svg>
